<svg xmlns="http://www.w3.org/2000/svg" width="24" height="24" viewBox="0 0 24 24"><defs><style>.a{fill:none;}.b{fill:#333745;}</style></defs><rect class="a" width="24" height="24"/><path class="b" d="M2,21a.988.988,0,0,1-.5-.138,1,1,0,0,1-.356-1.368,9.138,9.138,0,0,1,5.833-4.27,1,1,0,0,1,.442,1.951A7.129,7.129,0,0,0,2.862,20.5,1,1,0,0,1,2,21Zm6,0a1,1,0,0,1-.861-1.508,9.125,9.125,0,0,1,15.723,0,1,1,0,0,1-1.723,1.015,7.125,7.125,0,0,0-12.277,0A1,1,0,0,1,8,21Zm1-7A5,5,0,0,1,9,4a.992.992,0,0,1,.123.007c.063,0,.127.005.19.009a1,1,0,0,1-.128,2C9.091,6.007,9,6.01,8.906,6A3,3,0,0,0,9,12c.057,0,.113,0,.169,0a1,1,0,1,1,.18,1.992C9.234,14,9.117,14,9,14Zm6,0a5,5,0,1,1,5-5A5.006,5.006,0,0,1,15,14Zm0-8a3,3,0,1,0,3,3A3,3,0,0,0,15,6Zm7,15a1,1,0,0,1-.862-.492,7.126,7.126,0,0,0-12.278,0,1,1,0,0,1-1.723-1.015,9.126,9.126,0,0,1,15.723,0A1,1,0,0,1,22,21Z"/></svg>