<?xml version="1.0" encoding="UTF-8"?><svg id="c" xmlns="http://www.w3.org/2000/svg" viewBox="0 0 400 300"><line x1="254.7316" y1="190.3639" x2="158.3473" y2="190.3639" style="fill:none; stroke:#23293d; stroke-linecap:round; stroke-linejoin:round; stroke-width:2px;"/><line x1="199.154" y1="190.3639" x2="199.154" y2="262.6017" style="fill:none; stroke:#23293d; stroke-linecap:round; stroke-linejoin:round; stroke-width:2px;"/><line x1="109.6702" y1="230.4526" x2="199.154" y2="230.4526" style="fill:none; stroke:#23293d; stroke-linecap:round; stroke-linejoin:round; stroke-width:2px;"/><circle cx="226.9453" cy="240.1481" r="12.4952" style="fill:#54d0c9; stroke:#23293d; stroke-linecap:round; stroke-linejoin:round; stroke-width:2px;"/><circle cx="238.3616" cy="212.1584" r="5.2549" style="fill:#eb4b60;"/><path d="M232.0186,177.4782l31.7544-39.8037c1.6066-2.0139,4.7763-.1252,3.7698,2.2463l-15.9396,37.5573" style="fill:none; stroke:#333745; stroke-linecap:round; stroke-linejoin:round; stroke-width:2px;"/><rect x="293.9093" y="197.0019" width="47.638" height="65.5998" rx="3.7258" ry="3.7258" style="fill:none; stroke:#23293d; stroke-linecap:round; stroke-linejoin:round; stroke-width:2px;"/><path d="M333.8329,235.2168l17.1259,8.8392c2.3573,1.2167,5.1662-.4945,5.1662-3.1473v-32.6264c0-2.6528-2.8089-4.364-5.1662-3.1473l-17.1259,8.8392c-1.1776,.6078-1.9174,1.8221-1.9174,3.1473v14.948c0,1.3252,.7398,2.5395,1.9174,3.1473Z" style="fill:#fff; stroke:#23293d; stroke-linecap:round; stroke-linejoin:round; stroke-width:2px;"/><line x1="348.0055" y1="206.6593" x2="348.0055" y2="242.4496" style="fill:none; stroke:#23293d; stroke-linecap:round; stroke-linejoin:round; stroke-width:2px;"/><path d="M250.325,104.1784c-19.8254,7.7266-29.6333,30.0618-21.9067,49.8872,7.7266,19.8253,30.0618,29.6333,49.8872,21.9067,19.8254-7.7266,29.6333-30.0619,21.9067-49.8872-7.7266-19.8254-30.0618-29.6333-49.8872-21.9067Zm10.309,7.3348c-.5344-1.3713,.4077-2.8985,1.877-2.9845,6.6561-.3896,13.2655,1.3451,18.8707,4.9528,1.2375,.7965,1.3082,2.5897,.1691,3.5217l-11.9053,9.7412c-1.151,.9418-2.8859,.4863-3.426-.8994l-5.5855-14.3317Zm-26.88,20.5303c1.6857-6.4492,5.3782-12.199,10.5425-16.4161,1.14-.9309,2.8671-.444,3.4016,.9273l5.5855,14.3317c.5401,1.3857-.4291,2.8951-1.9138,2.9805l-15.3573,.8839c-1.4693,.0846-2.6307-1.2835-2.2585-2.7073Zm20.6565,18.4257l-3.8976,14.8452c-.3742,1.4257-2.0383,2.1067-3.2772,1.3082-5.5386-3.5692-9.9125-8.8247-12.3495-15.0777l-.0106-.0273c-.5259-1.3531,.4639-2.8212,1.9131-2.9046l15.3788-.8852c1.4848-.0855,2.6207,1.303,2.2431,2.7415Zm29.9049,14.0649c-2.5379,2.0762-5.4044,3.7519-8.5307,4.9703s-6.3708,1.9244-9.6442,2.1131c-1.4689,.0846-2.5794-1.3255-2.2057-2.7487l3.9043-14.8746c.3775-1.4386,2.0488-2.0899,3.3003-1.2862l12.9401,8.3098c1.2382,.795,1.3748,2.5848,.236,3.5164Zm10.5391-16.4702c-.3718,1.4262-2.0578,2.051-3.2981,1.2545l-12.9152-8.2927c-1.2514-.8037-1.3546-2.5946-.2036-3.5364l11.922-9.7548c1.1234-.9192,2.8456-.5081,3.374,.844l.0106,.0273c2.437,6.253,2.7729,13.0822,1.1102,19.4581Z" style="fill:#acacac; stroke:#acacac; stroke-linecap:round; stroke-linejoin:round; stroke-width:2px;"/><g><path d="M130.0188,263.5779v-.9762h-5.9873v.9762c0,2.3362-1.8939,4.2301-4.2301,4.2301h-1.269c-1.3838,0-2.5055,1.1218-2.5055,2.5055h0c0,1.3838,1.1218,2.5056,2.5055,2.5056h16.9857c1.3838,0,2.5055-1.1218,2.5055-2.5055h0c0-1.3838-1.1218-2.5056-2.5055-2.5056h-1.269c-2.3362,0-4.2301-1.8939-4.2301-4.2301Z" style="fill:#23293d; stroke:#23293d; stroke-linecap:round; stroke-linejoin:round; stroke-width:2px;"/><path d="M237.8322,263.5779v-.9762h-5.9873v.9762c0,2.3362-1.8939,4.2301-4.2301,4.2301h-1.269c-1.3838,0-2.5055,1.1218-2.5055,2.5055h0c0,1.3838,1.1218,2.5056,2.5055,2.5056h16.9857c1.3838,0,2.5055-1.1218,2.5055-2.5055h0c0-1.3838-1.1218-2.5056-2.5055-2.5056h-1.269c-2.3362,0-4.2301-1.8939-4.2301-4.2301Z" style="fill:#23293d; stroke:#23293d; stroke-linecap:round; stroke-linejoin:round; stroke-width:2px;"/></g><path d="M232.0186,177.4782l31.7544-39.8037c1.6066-2.0139,4.7763-.1252,3.7698,2.2463l-15.9396,37.5573" style="fill:#fff; stroke:#23293d; stroke-linecap:round; stroke-linejoin:round; stroke-width:2px;"/><path d="M320.7219,263.5779v-.9762h-5.9873v.9762c0,2.3362-1.8939,4.2301-4.2301,4.2301h-1.269c-1.3838,0-2.5055,1.1218-2.5055,2.5055h0c0,1.3838,1.1218,2.5056,2.5055,2.5056h16.9857c1.3838,0,2.5055-1.1218,2.5055-2.5055h0c0-1.3838-1.1218-2.5056-2.5055-2.5056h-1.269c-2.3362,0-4.2301-1.8939-4.2301-4.2301Z" style="fill:#23293d; stroke:#23293d; stroke-linecap:round; stroke-linejoin:round; stroke-width:2px;"/><path d="M158.8049,180.0162v1.3016c0,27.1364-21.9984,49.1348-49.1348,49.1348h0c-1.4017,0-2.5381,1.1363-2.5381,2.5381v27.073c0,1.4017,1.1363,2.5381,2.5381,2.5381H252.1936c1.4017,0,2.5381-1.1363,2.5381-2.5381v-80.0474c0-1.4017-1.1363-2.5381-2.5381-2.5381h-90.8506c-1.4017,0-2.5381,1.1363-2.5381,2.5381Z" style="fill:none; stroke:#23293d; stroke-linecap:round; stroke-linejoin:round; stroke-width:2px;"/><line x1="383.6875" y1="272.8192" x2="16.3125" y2="272.8192" style="fill:none; stroke:#23293d; stroke-linecap:round; stroke-linejoin:round; stroke-width:2px;"/><line x1="110.4329" y1="187.5598" x2="134.4508" y2="223.7534" style="fill:none; stroke:#23293d; stroke-linecap:round; stroke-linejoin:round; stroke-width:2px;"/><line x1="153.1555" y1="204.2111" x2="120.0751" y2="183.8559" style="fill:none; stroke:#23293d; stroke-linecap:round; stroke-linejoin:round; stroke-width:2px;"/><path d="M112.2083,145.3291c-21.2778,0-38.5269,17.249-38.5269,38.5269s17.249,38.5269,38.5269,38.5269,38.5269-17.2491,38.5269-38.5269-17.249-38.5269-38.5269-38.5269Zm6.9418,10.5777c0-1.4717,1.4324-2.5526,2.8326-2.0992,6.3432,2.054,11.8715,6.0704,15.7841,11.4672,.8638,1.1915,.2785,2.888-1.1213,3.3427l-14.6299,4.7531c-1.4145,.4595-2.8655-.5949-2.8655-2.0821v-15.3816Zm-32.5003,9.368c3.9125-5.3968,9.4409-9.4133,15.7841-11.4672,1.4002-.4534,2.8326,.6275,2.8326,2.0992v15.3816c0,1.4872-1.4511,2.5416-2.8655,2.0821l-14.6299-4.7531c-1.3997-.4547-1.9851-2.1512-1.1213-3.3427Zm12.5555,24.6689l-9.0223,12.4165c-.8664,1.1925-2.6642,1.2227-3.5285,.0288-3.8644-5.3368-6.0313-11.8219-6.0313-18.533v-.0293c.0014-1.4517,1.4567-2.4601,2.8372-2.0116l14.6504,4.7597c1.4145,.4595,1.9686,2.1657,1.0945,3.3689Zm22.7562,23.9641c-3.1185,1.0129-6.3979,1.5333-9.7532,1.5333s-6.6347-.5204-9.7532-1.5333c-1.3994-.4545-1.922-2.1717-1.057-3.3621l9.0392-12.4415c.8742-1.2033,2.6679-1.2033,3.5421,0l9.0392,12.4415c.865,1.1904,.3423,2.9075-1.057,3.3621Zm15.8005-11.5188c-.8643,1.1939-2.6621,1.1637-3.5285-.0288l-9.0223-12.4165c-.8742-1.2033-.32-2.9094,1.0945-3.3689l14.6504-4.7597c1.3806-.4485,2.8359,.56,2.8372,2.0116v.0293c0,6.7111-2.1669,13.1962-6.0313,18.533Z" style="fill:#acacac; stroke:#acacac; stroke-linecap:round; stroke-linejoin:round; stroke-width:2px;"/><ellipse cx="177.5312" cy="111.6562" rx="6.1875" ry="4.0781" style="fill:#23293d; stroke:#23293d; stroke-linecap:round; stroke-linejoin:round; stroke-width:2px;"/><ellipse cx="177.5312" cy="116.7891" rx="2.6719" ry="2.8125" style="fill:#23293d; stroke:#23293d; stroke-linecap:round; stroke-linejoin:round; stroke-width:2px;"/><path d="M170.7812,108.75c-1.0312-3.0938-6.375-6.2812-9.5625-3.0938" style="fill:none; stroke:#23293d; stroke-linecap:round; stroke-linejoin:round; stroke-width:2px;"/><path d="M168.5312,111.0938c-3.0446-1.7578-7.3682-1.5403-8.0435,1.1283" style="fill:none; stroke:#23293d; stroke-linecap:round; stroke-linejoin:round; stroke-width:2px;"/><path d="M169.0234,113.7656c-3.3047-.8438-6.0469,1.4766-6.75,4.2188" style="fill:none; stroke:#23293d; stroke-linecap:round; stroke-linejoin:round; stroke-width:2px;"/><path d="M172.1172,116.4375c-5.2734,1.125-5.6602,6.0117-4.3594,7.3125" style="fill:none; stroke:#23293d; stroke-linecap:round; stroke-linejoin:round; stroke-width:2px;"/><path d="M182.9453,106.5418c2.1094-3.4637,6.4129-4.1918,8.6484-2.9012" style="fill:none; stroke:#23293d; stroke-linecap:round; stroke-linejoin:round; stroke-width:2px;"/><path d="M185.5469,110.4609c3.4974-2.0192,7.4485-1.9828,8.9297-.5015" style="fill:none; stroke:#23293d; stroke-linecap:round; stroke-linejoin:round; stroke-width:2px;"/><path d="M185.5469,113.5897c4.8516-.8788,8.1562,1.7228,8.1562,3.6915" style="fill:none; stroke:#23293d; stroke-linecap:round; stroke-linejoin:round; stroke-width:2px;"/><path d="M182.9453,116.1562c2.7569,1.5917,4.3242,4.2188,4.3242,6.1172" style="fill:none; stroke:#23293d; stroke-linecap:round; stroke-linejoin:round; stroke-width:2px;"/><path d="M177.5312,104.7926c-1.0431-16.4762-1.2717-58.3863,0-86.4176" style="fill:none; stroke:#23293d; stroke-linecap:round; stroke-linejoin:round; stroke-width:2px;"/><g id="d" style="opacity:.5;"><path d="M284.9935,157.1507c5.4667,16.6179,24.2745,47.2702,56.5538,57.2273" style="fill:none; stroke:#5a7d9a; stroke-linecap:round; stroke-linejoin:round; stroke-width:2px;"/><path d="M275.4268,152.7283c3.7095,16.5499,10.3476,48.7641,44.7094,77.0735" style="fill:none; stroke:#5a7d9a; stroke-linecap:round; stroke-linejoin:round; stroke-width:2px;"/><path d="M301.3934,243.6637c-23.6237-32.019-34.1666-74.3855-32.2142-93.3235" style="fill:none; stroke:#5a7d9a; stroke-linecap:round; stroke-linejoin:round; stroke-width:2px;"/><path d="M242.4317,220.04c12.3-10.9333,21.248-54.4713,19.3121-71.2617" style="fill:none; stroke:#5a7d9a; stroke-linecap:round; stroke-linejoin:round; stroke-width:2px;"/><path d="M228.565,206.9035c16.4047-12.6349,28.8999-43.4824,26.1666-52.8538" style="fill:none; stroke:#5a7d9a; stroke-linecap:round; stroke-linejoin:round; stroke-width:2px;"/><path d="M232.0186,196.4162c8.2655,16.9857,72.4995,35.9222,102.37,4.0065" style="fill:none; stroke:#5a7d9a; stroke-linecap:round; stroke-linejoin:round; stroke-width:2px;"/><path d="M328.7267,188.2162c-23.4285,16.4-60.659,20.3047-90.365,0" style="fill:none; stroke:#5a7d9a; stroke-linecap:round; stroke-linejoin:round; stroke-width:2px;"/><path d="M308.8124,181.7734c-17.7437,10.2443-47.0479,8.8527-64.6273-1.2968" style="fill:none; stroke:#5a7d9a; stroke-linecap:round; stroke-linejoin:round; stroke-width:2px;"/><path d="M247.7031,170.2538c9.5197,5.4962,35.0656,8.3958,48.1851-2.1471" style="fill:none; stroke:#5a7d9a; stroke-linecap:round; stroke-linejoin:round; stroke-width:2px;"/><path d="M23.5704,285.835c10.9333-29.0904,57.5951-67.604,70.4807-85.2471" style="fill:none; stroke:#5a7d9a; stroke-linecap:round; stroke-linejoin:round; stroke-width:2px;"/><path d="M68.2798,290.1302c-1.5619-16.2047,9.7619-59.6513,28.3094-83.8088" style="fill:none; stroke:#5a7d9a; stroke-linecap:round; stroke-linejoin:round; stroke-width:2px;"/><path d="M99.6246,289.3493c-3.4258-11.7143-11.821-48.6358-1.2782-73.9082" style="fill:none; stroke:#5a7d9a; stroke-linecap:round; stroke-linejoin:round; stroke-width:2px;"/><path d="M120.4082,287.5921c-12.4952-12.4952-17.0074-43.1821-15.1418-69.8147" style="fill:none; stroke:#5a7d9a; stroke-linecap:round; stroke-linejoin:round; stroke-width:2px;"/><path d="M26.499,256.1589c13.3738,13.3738,38.657,26.7475,87.8569,10.5428" style="fill:none; stroke:#5a7d9a; stroke-linecap:round; stroke-linejoin:round; stroke-width:2px;"/><path d="M31.7704,238.0018c10.4452,10.4452,44.9046,33.1904,82.5855,22.4523" style="fill:none; stroke:#5a7d9a; stroke-linecap:round; stroke-linejoin:round; stroke-width:2px;"/><path d="M49.7322,222.3828c8.9809,10.7381,38.4618,33.6612,62.476,30.302" style="fill:none; stroke:#5a7d9a; stroke-linecap:round; stroke-linejoin:round; stroke-width:2px;"/><path d="M58.8108,208.7162c11.0797,11.0797,30.5547,26.9428,59.2546,25.1856" style="fill:none; stroke:#5a7d9a; stroke-linecap:round; stroke-linejoin:round; stroke-width:2px;"/></g></svg>